#!OML:ASF H:\Terrain\Patient Classification 1\Walking\liu\liu.ASF
:FULLY-SPECIFIED
:DEGREES
275
root 14.946661 25.319550 2.575500 8.858655 -6.008280 2.741445
lowerback -7.164525 -2.290770 -4.278495
upperback -0.907306 -2.906400 3.242700
thorax 3.337290 -1.502100 5.552955
lowerneck -33.010201 -5.550615 -16.974899
upperneck 32.388000 -6.533265 17.202751
head 16.728901 -2.272590 8.156430
rclavicle -0.000000 -0.000000
rhumerus -68.811752 13.004625 -124.843048
rradius 64.115547
rwrist -35.924702
rhand -45.212250 -32.729248
rfingers 10.687531
rthumb -5.181135 -77.656952
lclavicle -0.000000 -0.000000
lhumerus -32.327850 -20.318100 130.658096
lradius 35.633701
lwrist -0.109837
lhand -19.077299 -36.981453
lfingers 10.687531
lthumb 20.047350 7.345575
rfemur -38.956348 -2.537040 27.000601
rtibia 96.275406
rfoot -27.610500 -17.685900
rtoes -29.024551
lfemur -26.459698 9.800550 -42.561150
ltibia 44.520599
lfoot -25.836599 10.263480
ltoes -7.007640
276
root 14.967196 25.304850 2.775555 8.637345 -5.523225 3.019695
lowerback -7.255816 -2.543610 -4.575225
upperback -0.817985 -3.226755 3.262170
thorax 3.520035 -1.669695 5.713950
lowerneck -32.939850 -5.532240 -16.896301
upperneck 32.750252 -6.492975 16.913250
head 16.834949 -2.286645 8.052255
rclavicle -0.000000 0.000000
rhumerus -68.690247 12.566219 -124.511551
rradius 63.887100
rwrist -35.151749
rhand -44.543850 -32.990700
rfingers 10.687531
rthumb -4.535715 -77.928146
lclavicle -0.000000 0.000000
lhumerus -31.300949 -20.889450 130.583252
lradius 35.926800
lwrist 0.118074
lhand -19.558950 -36.734699
lfingers 10.687531
lthumb 19.582951 7.622416
rfemur -40.304703 -2.616075 26.784752
rtibia 95.098351
rfoot -27.876152 -17.743649
rtoes -27.098850
lfemur -25.347752 9.379230 -42.814651
ltibia 44.219250
lfoot -26.255852 9.959881
ltoes -4.516650
277
root 14.990610 25.288498 2.982840 8.448210 -4.988790 3.146445
lowerback -7.587960 -2.745255 -4.570740
upperback -0.516349 -3.487740 3.223920
thorax 4.039425 -1.813890 5.637750
lowerneck -33.164101 -5.502825 -16.736099
upperneck 32.923050 -6.435570 16.692001
head 16.924801 -2.268660 7.957215
rclavicle 0.000000 -0.000000
rhumerus -68.493599 12.578581 -124.606201
rradius 63.826347
rwrist -35.658600
rhand -44.227501 -34.153351
rfingers 10.687531
rthumb -4.230135 -79.095001
lclavicle 0.000000 -0.000000
lhumerus -29.765251 -21.167700 130.305298
lradius 36.086849
lwrist 0.160127
lhand -19.157101 -36.376801
lfingers 10.687531
lthumb 19.970400 7.955339
rfemur -41.561848 -2.764815 26.699850
rtibia 93.746696
rfoot -28.165501 -17.800350
rtoes -27.308550
lfemur -24.212099 9.043650 -42.957748
ltibia 44.017799
lfoot -26.979900 9.536565
ltoes -1.632315
278
root 14.999431 25.270500 3.162135 8.490225 -4.341420 2.902380
lowerback -7.531245 -3.006345 -4.353090
upperback -0.579377 -3.853185 3.356220
thorax 3.971640 -1.992420 5.625900
lowerneck -32.861248 -5.482065 -16.958549
upperneck 32.846703 -6.408735 16.886400
head 16.844999 -2.259795 8.069715
rclavicle -0.000000 -0.000000
rhumerus -68.940002 12.967320 -124.760101
rradius 64.141052
rwrist -36.282749
rhand -43.677147 -34.696201
rfingers 10.687531
rthumb -3.698640 -79.644447
lclavicle -0.000000 -0.000000
lhumerus -28.692150 -21.154499 130.107452
lradius 36.248699
lwrist -0.226894
lhand -19.915649 -36.599998
lfingers 10.687531
lthumb 19.239000 7.778985
rfemur -43.117203 -2.566755 27.137850
rtibia 92.207253
rfoot -29.906700 -17.801100
rtoes -27.724199
lfemur -23.360851 8.884726 -42.688351
ltibia 43.765053
lfoot -27.232201 9.248685
ltoes -0.708950
279
root 15.011550 25.263451 3.346545 8.381010 -3.626250 2.860290
lowerback -7.339695 -3.292365 -4.266630
upperback -0.680605 -4.244385 3.403170
thorax 3.792405 -2.182455 5.603460
lowerneck -32.592300 -5.521365 -17.285400
upperneck 33.027298 -6.487185 17.220299
head 16.888199 -2.291760 8.248350
rclavicle -0.000000 0.000000
rhumerus -69.320549 12.654675 -124.537949
rradius 64.045502
rwrist -35.689201
rhand -43.664551 -35.039101
rfingers 10.687531
rthumb -3.686430 -79.987350
lclavicle -0.000000 0.000000
lhumerus -27.925501 -21.367800 129.948151
lradius 36.581398
lwrist -0.412592
lhand -21.089550 -36.591301
lfingers 10.687531
lthumb 18.107399 7.856430
rfemur -44.400898 -2.517465 27.283649
rtibia 90.518402
rfoot -31.279650 -17.919300
rtoes -25.167900
lfemur -22.239901 8.714640 -42.620251
ltibia 43.397247
lfoot -27.416550 8.939955
ltoes -0.104452
280
root 15.028650 25.269899 3.541455 8.110560 -2.998200 3.174195
lowerback -7.417965 -3.531210 -4.463070
upperback -0.367770 -4.547625 3.256920
thorax 4.188300 -2.346660 5.528550
lowerneck -32.689350 -5.512410 -17.229301
upperneck 33.009598 -6.487095 17.240850
head 16.899450 -2.281590 8.246580
rclavicle -0.000000 0.000000
rhumerus -68.614647 11.284755 -124.009659
rradius 62.974197
rwrist -34.184101
rhand -43.431599 -32.575203
rfingers 10.687531
rthumb -3.461445 -77.526154
lclavicle -0.000000 0.000000
lhumerus -26.513550 -22.525801 129.636307
lradius 36.957001
lwrist 0.635477
lhand -21.239849 -36.191250
lfingers 10.687531
lthumb 17.962351 8.264956
rfemur -45.499348 -2.549415 26.917500
rtibia 88.756348
rfoot -30.655649 -18.402451
rtoes -24.041399
lfemur -20.917049 8.320590 -42.902100
ltibia 42.902100
lfoot -27.985500 8.531520
ltoes 0.245886
281
root 15.032249 25.276051 3.723780 8.123610 -2.298030 3.694110
lowerback -7.521795 -3.844185 -5.118630
upperback -0.199935 -4.923165 3.166860
thorax 4.485345 -2.550420 5.764680
lowerneck -32.770649 -5.452695 -17.312099
upperneck 32.945099 -6.395910 17.377501
head 16.883701 -2.228145 8.326620
rclavicle 0.000000 0.000000
rhumerus -68.306244 10.833810 -123.836403
rradius 62.528999
rwrist -33.560101
rhand -42.433350 -30.799950
rfingers 10.687531
rthumb -2.497335 -75.759750
lclavicle 0.000000 0.000000
lhumerus -24.965549 -23.454300 129.382950
lradius 36.963600
lwrist 1.822125
lhand -21.576000 -36.459900
lfingers 10.687531
lthumb 17.638199 8.015025
rfemur -46.961700 -2.496435 26.351101
rtibia 86.924698
rfoot -30.424799 -18.590099
rtoes -24.738300
lfemur -19.835251 7.798560 -43.426201
ltibia 42.157799
lfoot -28.393349 8.516730
ltoes -0.715535
282
root 15.035399 25.282200 3.900645 8.531956 -1.389816 3.999330
lowerback -7.777801 -4.236570 -5.600595
upperback -0.338044 -5.412795 3.219345
thorax 4.565880 -2.801040 6.039630
lowerneck -32.922302 -5.410020 -17.424000
upperneck 33.220951 -6.331935 17.489700
head 17.012550 -2.192955 8.413470
rclavicle 0.000000 -0.000000
rhumerus -68.948547 11.950860 -124.286545
rradius 63.140846
rwrist -34.634552
rhand -42.853649 -35.035202
rfingers 10.687531
rthumb -2.903310 -79.991554
lclavicle 0.000000 -0.000000
lhumerus -23.799000 -23.071350 129.238800
lradius 36.853050
lwrist 1.574475
lhand -22.380899 -37.097847
lfingers 10.687531
lthumb 16.861950 7.420335
rfemur -48.652802 -2.589135 26.019001
rtibia 84.971550
rfoot -31.967701 -18.144451
rtoes -24.110851
lfemur -19.006649 7.196070 -43.774651
ltibia 41.165699
lfoot -28.283850 8.677350
ltoes -1.973625
283
root 15.044400 25.293600 4.086165 8.762355 -0.660819 3.757830
lowerback -7.770600 -4.510620 -5.549310
upperback -0.561028 -5.789415 3.465840
thorax 4.382460 -2.982675 6.239940
lowerneck -32.433750 -5.300160 -17.394751
upperneck 33.104248 -6.178695 17.296350
head 16.847099 -2.156850 8.348701
rclavicle 0.000000 0.000000
rhumerus -69.514801 12.494699 -124.301399
rradius 63.130051
rwrist -35.013901
rhand -43.660049 -36.997200
rfingers 10.687531
rthumb -3.682155 -81.945755
lclavicle 0.000000 0.000000
lhumerus -23.023800 -22.646999 129.322952
lradius 36.968399
lwrist 0.836163
lhand -22.938301 -37.178249
lfingers 10.687531
lthumb 16.324350 7.368750
rfemur -49.933502 -2.352285 26.190451
rtibia 82.874847
rfoot -33.284698 -17.874451
rtoes -23.599499
lfemur -17.905500 6.887280 -43.474800
ltibia 39.988949
lfoot -28.249802 8.421000
ltoes -2.626020
284
root 15.052950 25.308750 4.293315 8.438280 -0.311559 3.611235
lowerback -7.561605 -4.621980 -5.519085
upperback -0.467964 -5.949615 3.575640
thorax 4.384035 -3.065220 6.330870
lowerneck -32.272800 -5.298885 -17.129101
upperneck 33.112350 -6.174765 16.883249
head 16.802250 -2.186400 8.142495
rclavicle -0.000000 -0.000000
rhumerus -69.530251 12.012734 -124.021202
rradius 62.583149
rwrist -34.374149
rhand -43.555801 -33.505352
rfingers 10.687531
rthumb -3.581490 -78.454948
lclavicle -0.000000 -0.000000
lhumerus -22.011299 -22.730549 129.278107
lradius 37.055401
lwrist 0.216892
lhand -23.155949 -37.265251
lfingers 10.687531
lthumb 16.114500 7.292760
rfemur -50.526154 -1.753920 26.193748
rtibia 80.648552
rfoot -32.870998 -18.301350
rtoes -26.618999
lfemur -16.046400 7.125315 -43.211250
ltibia 38.651550
lfoot -28.515301 8.169750
ltoes -3.847410
285
root 15.063601 25.319248 4.512630 8.129354 0.047768 3.988665
lowerback -8.010839 -4.747725 -5.817165
upperback 0.080175 -6.080100 3.388890
thorax 5.225550 -3.159990 6.252120
lowerneck -32.859600 -5.432490 -16.991100
upperneck 33.196800 -6.330855 16.799999
head 16.963200 -2.240205 8.069310
rclavicle -0.000000 -0.000000
rhumerus -69.003746 11.761740 -124.219803
rradius 62.287502
rwrist -34.593750
rhand -44.614948 -33.164101
rfingers 10.687531
rthumb -4.604280 -78.100502
lclavicle -0.000000 -0.000000
lhumerus -20.301750 -23.522699 128.903839
lradius 37.192200
lwrist 0.726313
lhand -22.999500 -37.285049
lfingers 10.687531
lthumb 16.265251 7.265100
rfemur -51.090004 -1.421847 25.600800
rtibia 78.336601
rfoot -31.505550 -18.575251
rtoes -31.066349
lfemur -14.188980 7.119600 -43.548748
ltibia 37.416748
lfoot -28.890148 8.179545
ltoes -5.833890
286
root 15.071550 25.315048 4.718190 8.104965 0.433305 4.289235
lowerback -8.182350 -4.845510 -6.155340
upperback 0.197412 -6.182175 3.352830
thorax 5.476335 -3.223950 6.381885
lowerneck -32.550598 -5.492820 -17.515800
upperneck 32.864552 -6.383656 17.318399
head 16.812901 -2.252745 8.335665
rclavicle -0.000000 0.000000
rhumerus -68.852699 11.536335 -124.088547
rradius 61.635147
rwrist -34.556549
rhand -45.409500 -34.748100
rfingers 10.687531
rthumb -5.371665 -79.672501
lclavicle -0.000000 0.000000
lhumerus -19.354050 -24.940048 129.055054
lradius 37.699200
lwrist 2.622765
lhand -23.165249 -36.932102
lfingers 10.687531
lthumb 16.105501 7.626300
rfemur -52.075050 -1.160692 25.107450
rtibia 76.033501
rfoot -32.113949 -18.402300
rtoes -31.124851
lfemur -12.454889 6.966555 -43.816200
ltibia 35.668953
lfoot -28.895100 8.027280
ltoes -6.971910
